<svg width="130" height="137" viewBox="0 0 130 137" fill="none" xmlns="http://www.w3.org/2000/svg">
<g filter="url(#filter0_d_1_31)">
<rect x="4" width="122" height="129" rx="20" fill="url(#paint0_linear_1_31)"/>
<path d="M38.4659 21.6364H41.4091L48.3295 38.5398H48.5682L55.4886 21.6364H58.4318V42H56.125V26.5284H55.9261L49.5625 42H47.3352L40.9716 26.5284H40.7727V42H38.4659V21.6364ZM69.2624 42.3182C67.8836 42.3182 66.6739 41.9901 65.6332 41.3338C64.5991 40.6776 63.7904 39.7595 63.207 38.5795C62.6303 37.3996 62.342 36.0208 62.342 34.4432C62.342 32.8523 62.6303 31.4635 63.207 30.277C63.7904 29.0904 64.5991 28.169 65.6332 27.5128C66.6739 26.8565 67.8836 26.5284 69.2624 26.5284C70.6412 26.5284 71.8477 26.8565 72.8817 27.5128C73.9225 28.169 74.7312 29.0904 75.3079 30.277C75.8912 31.4635 76.1829 32.8523 76.1829 34.4432C76.1829 36.0208 75.8912 37.3996 75.3079 38.5795C74.7312 39.7595 73.9225 40.6776 72.8817 41.3338C71.8477 41.9901 70.6412 42.3182 69.2624 42.3182ZM69.2624 40.2102C70.3098 40.2102 71.1715 39.9418 71.8477 39.4048C72.5238 38.8679 73.0243 38.1619 73.3491 37.2869C73.6739 36.4119 73.8363 35.464 73.8363 34.4432C73.8363 33.4223 73.6739 32.4711 73.3491 31.5895C73.0243 30.7079 72.5238 29.9953 71.8477 29.4517C71.1715 28.9081 70.3098 28.6364 69.2624 28.6364C68.2151 28.6364 67.3533 28.9081 66.6772 29.4517C66.0011 29.9953 65.5006 30.7079 65.1758 31.5895C64.851 32.4711 64.6886 33.4223 64.6886 34.4432C64.6886 35.464 64.851 36.4119 65.1758 37.2869C65.5006 38.1619 66.0011 38.8679 66.6772 39.4048C67.3533 39.9418 68.2151 40.2102 69.2624 40.2102ZM82.1115 32.8125V42H79.7649V26.7273H82.032V29.1136H82.2308C82.5888 28.3381 83.1323 27.715 83.8615 27.2443C84.5907 26.767 85.532 26.5284 86.6854 26.5284C87.7195 26.5284 88.6243 26.7405 89.3999 27.1648C90.1754 27.5824 90.7786 28.2188 91.2095 29.0739C91.6404 29.9223 91.8558 30.9962 91.8558 32.2955V42H89.5092V32.4545C89.5092 31.2547 89.1977 30.3201 88.5746 29.6506C87.9515 28.9744 87.0964 28.6364 86.0092 28.6364C85.2602 28.6364 84.5907 28.7988 84.0007 29.1236C83.4174 29.4484 82.9567 29.9223 82.6186 30.5455C82.2805 31.1686 82.1115 31.9242 82.1115 32.8125Z" fill="white"/>
<path d="M90.267 73.6364V94H87.8011V76.2216H87.6818L82.7102 79.5227V77.017L87.8011 73.6364H90.267ZM96.1236 94V92.2102L102.845 84.8523C103.634 83.9905 104.284 83.2415 104.794 82.6051C105.304 81.9621 105.682 81.3589 105.928 80.7955C106.179 80.2254 106.305 79.6288 106.305 79.0057C106.305 78.2898 106.133 77.67 105.788 77.1463C105.45 76.6226 104.986 76.2183 104.396 75.9332C103.806 75.6482 103.143 75.5057 102.408 75.5057C101.625 75.5057 100.943 75.6681 100.359 75.9929C99.7827 76.3111 99.3352 76.7585 99.017 77.3352C98.7055 77.9119 98.5497 78.5881 98.5497 79.3636H96.2031C96.2031 78.1705 96.4782 77.1231 97.0284 76.2216C97.5786 75.3201 98.3277 74.6174 99.2756 74.1136C100.23 73.6098 101.301 73.358 102.487 73.358C103.68 73.358 104.738 73.6098 105.659 74.1136C106.58 74.6174 107.303 75.2969 107.827 76.152C108.35 77.0071 108.612 77.9583 108.612 79.0057C108.612 79.7547 108.476 80.4872 108.205 81.2031C107.939 81.9124 107.475 82.7045 106.812 83.5795C106.156 84.4479 105.245 85.5085 104.078 86.7614L99.5043 91.6534V91.8125H108.97V94H96.1236Z" fill="white"/>
<path d="M115.474 69.1705C114.736 69.1705 114.088 68.9947 113.53 68.6431C112.976 68.2915 112.543 67.7997 112.23 67.1676C111.922 66.5355 111.767 65.7969 111.767 64.9517C111.767 64.0994 111.922 63.3555 112.23 62.7198C112.543 62.0842 112.976 61.5906 113.53 61.239C114.088 60.8874 114.736 60.7116 115.474 60.7116C116.213 60.7116 116.859 60.8874 117.413 61.239C117.971 61.5906 118.404 62.0842 118.713 62.7198C119.026 63.3555 119.182 64.0994 119.182 64.9517C119.182 65.7969 119.026 66.5355 118.713 67.1676C118.404 67.7997 117.971 68.2915 117.413 68.6431C116.859 68.9947 116.213 69.1705 115.474 69.1705ZM115.474 68.0412C116.036 68.0412 116.497 67.8974 116.859 67.6097C117.222 67.3221 117.49 66.9439 117.664 66.4751C117.838 66.0064 117.925 65.4986 117.925 64.9517C117.925 64.4048 117.838 63.8952 117.664 63.4229C117.49 62.9506 117.222 62.5689 116.859 62.2777C116.497 61.9865 116.036 61.8409 115.474 61.8409C114.913 61.8409 114.452 61.9865 114.089 62.2777C113.727 62.5689 113.459 62.9506 113.285 63.4229C113.111 63.8952 113.024 64.4048 113.024 64.9517C113.024 65.4986 113.111 66.0064 113.285 66.4751C113.459 66.9439 113.727 67.3221 114.089 67.6097C114.452 67.8974 114.913 68.0412 115.474 68.0412Z" fill="white"/>
<path d="M22.108 94V92.2102L28.8295 84.8523C29.6184 83.9905 30.268 83.2415 30.7784 82.6051C31.2888 81.9621 31.6667 81.3589 31.9119 80.7955C32.1638 80.2254 32.2898 79.6288 32.2898 79.0057C32.2898 78.2898 32.1174 77.67 31.7727 77.1463C31.4347 76.6226 30.9706 76.2183 30.3807 75.9332C29.7907 75.6482 29.1278 75.5057 28.392 75.5057C27.6098 75.5057 26.9271 75.6681 26.3438 75.9929C25.767 76.3111 25.3196 76.7585 25.0014 77.3352C24.6899 77.9119 24.5341 78.5881 24.5341 79.3636H22.1875C22.1875 78.1705 22.4626 77.1231 23.0128 76.2216C23.563 75.3201 24.312 74.6174 25.2599 74.1136C26.2145 73.6098 27.285 73.358 28.4716 73.358C29.6648 73.358 30.7221 73.6098 31.6435 74.1136C32.5649 74.6174 33.2874 75.2969 33.8111 76.152C34.3348 77.0071 34.5966 77.9583 34.5966 79.0057C34.5966 79.7547 34.4607 80.4872 34.1889 81.2031C33.9238 81.9124 33.4598 82.7045 32.7969 83.5795C32.1406 84.4479 31.2292 85.5085 30.0625 86.7614L25.4886 91.6534V91.8125H34.9545V94H22.108ZM46.2202 73.6364V94H43.7543V76.2216H43.6349L38.6634 79.5227V77.017L43.7543 73.6364H46.2202Z" fill="white"/>
<path d="M55.4744 72.1705C54.7358 72.1705 54.0877 71.9947 53.5302 71.6431C52.9762 71.2915 52.543 70.7997 52.2305 70.1676C51.9215 69.5355 51.767 68.7969 51.767 67.9517C51.767 67.0994 51.9215 66.3555 52.2305 65.7198C52.543 65.0842 52.9762 64.5906 53.5302 64.239C54.0877 63.8874 54.7358 63.7116 55.4744 63.7116C56.2131 63.7116 56.8594 63.8874 57.4134 64.239C57.9709 64.5906 58.4041 65.0842 58.7131 65.7198C59.0256 66.3555 59.1818 67.0994 59.1818 67.9517C59.1818 68.7969 59.0256 69.5355 58.7131 70.1676C58.4041 70.7997 57.9709 71.2915 57.4134 71.6431C56.8594 71.9947 56.2131 72.1705 55.4744 72.1705ZM55.4744 71.0412C56.0355 71.0412 56.4972 70.8974 56.8594 70.6097C57.2216 70.3221 57.4897 69.9439 57.6637 69.4751C57.8377 69.0064 57.9247 68.4986 57.9247 67.9517C57.9247 67.4048 57.8377 66.8952 57.6637 66.4229C57.4897 65.9506 57.2216 65.5689 56.8594 65.2777C56.4972 64.9865 56.0355 64.8409 55.4744 64.8409C54.9134 64.8409 54.4517 64.9865 54.0895 65.2777C53.7273 65.5689 53.4592 65.9506 53.2852 66.4229C53.1112 66.8952 53.0241 67.4048 53.0241 67.9517C53.0241 68.4986 53.1112 69.0064 53.2852 69.4751C53.4592 69.9439 53.7273 70.3221 54.0895 70.6097C54.4517 70.8974 54.9134 71.0412 55.4744 71.0412Z" fill="white"/>
<path d="M73.3452 75.9659L67.4858 97.7344H65.5682L71.4276 75.9659H73.3452Z" fill="white"/>
</g>
<defs>
<filter id="filter0_d_1_31" x="0" y="0" width="130" height="137" filterUnits="userSpaceOnUse" color-interpolation-filters="sRGB">
<feFlood flood-opacity="0" result="BackgroundImageFix"/>
<feColorMatrix in="SourceAlpha" type="matrix" values="0 0 0 0 0 0 0 0 0 0 0 0 0 0 0 0 0 0 127 0" result="hardAlpha"/>
<feOffset dy="4"/>
<feGaussianBlur stdDeviation="2"/>
<feComposite in2="hardAlpha" operator="out"/>
<feColorMatrix type="matrix" values="0 0 0 0 0 0 0 0 0 0 0 0 0 0 0 0 0 0 0.25 0"/>
<feBlend mode="normal" in2="BackgroundImageFix" result="effect1_dropShadow_1_31"/>
<feBlend mode="normal" in="SourceGraphic" in2="effect1_dropShadow_1_31" result="shape"/>
</filter>
<linearGradient id="paint0_linear_1_31" x1="65" y1="0" x2="65" y2="129" gradientUnits="userSpaceOnUse">
<stop stop-color="#4D748D"/>
<stop offset="0.969916" stop-color="#39647D"/>
</linearGradient>
</defs>
</svg>
